#tb 0: 1/60
#media_type 0: video
#codec_id 0: rawvideo
#dimensions 0: 320x240
#sar 0: 1/1
0,          0,          0,        1,   307200, 0xf0d70414
0,          1,          1,        1,   307200, 0x6f4f534a
0,          2,          2,        1,   307200, 0x57f82b18
0,          3,          3,        1,   307200, 0xcda8e8a1
0,          4,          4,        1,   307200, 0xaa307009
0,          5,          5,        1,   307200, 0x9ad7c3d3
0,          6,          6,        1,   307200, 0x9df5f0d7
0,          7,          7,        1,   307200, 0xfb7edf18
0,          8,          8,        1,   307200, 0xef248b54
0,          9,          9,        1,   307200, 0x61ad29ba
0,         10,         10,        1,   307200, 0xbbb6d277
0,         11,         11,        1,   307200, 0xdd651a67
0,         12,         12,        1,   307200, 0x15ba3293
0,         13,         13,        1,   307200, 0x4c7162e4
0,         14,         14,        1,   307200, 0xdbf4df9c
0,         15,         15,        1,   307200, 0xf41bf8b4
0,         16,         16,        1,   307200, 0xd1ea6bda
0,         17,         17,        1,   307200, 0xbe30495d
0,         18,         18,        1,   307200, 0xce1b92fe
0,         19,         19,        1,   307200, 0xdf503102
0,         20,         20,        1,   307200, 0xc6d8feaa
0,         21,         21,        1,   307200, 0x13451b24
0,         22,         22,        1,   307200, 0x6ee0eab6
0,         23,         23,        1,   307200, 0xdcf59507
0,         24,         24,        1,   307200, 0x017539af
0,         25,         25,        1,   307200, 0x140bd179
0,         26,         26,        1,   307200, 0xee8b6208
0,         27,         27,        1,   307200, 0xb81c4fd4
0,         28,         28,        1,   307200, 0x533c9287
0,         29,         29,        1,   307200, 0x54a0e4d0
0,         30,         30,        1,   307200, 0xdd700bcd
0,         31,         31,        1,   307200, 0xd49ee76f
0,         32,         32,        1,   307200, 0xd881bc34
0,         33,         33,        1,   307200, 0x1422ea45
0,         34,         34,        1,   307200, 0x31ede786
0,         35,         35,        1,   307200, 0x29adb882
0,         36,         36,        1,   307200, 0x62b4f994
0,         37,         37,        1,   307200, 0x253558d8
0,         38,         38,        1,   307200, 0xfb0eaa67
0,         39,         39,        1,   307200, 0x331c2adf
0,         40,         40,        1,   307200, 0xf853359e
0,         41,         41,        1,   307200, 0xca73beb7
0,         42,         42,        1,   307200, 0xd31b8d8a
0,         43,         43,        1,   307200, 0x83dcdaaf
0,         44,         44,        1,   307200, 0x1ee4383b
0,         45,         45,        1,   307200, 0x7ac11c03
0,         46,         46,        1,   307200, 0x57bb11bd
0,         47,         47,        1,   307200, 0x9f448c18
0,         48,         48,        1,   307200, 0x8b472bcd
0,         49,         49,        1,   307200, 0xbd32b115
0,         50,         50,        1,   307200, 0xb4283663
0,         51,         51,        1,   307200, 0x9fd04c1f
0,         52,         52,        1,   307200, 0x1d605e27
0,         53,         53,        1,   307200, 0x155cac69
0,         54,         54,        1,   307200, 0xfc3a7fc0
0,         55,         55,        1,   307200, 0x801462a2
0,         56,         56,        1,   307200, 0xd1db5657
0,         57,         57,        1,   307200, 0x42cbf5b8
0,         58,         58,        1,   307200, 0x7b239eae
0,         59,         59,        1,   307200, 0x4d6d0da4
